{
	"asset":{
		"generator":"Khronos glTF Blender I/O v3.6.27",
		"version":"2.0"
	},
	"scene":0,
	"scenes":[
		{
			"name":"Scene",
			"nodes":[
				1
			]
		}
	],
	"nodes":[
		{
			"mesh":0,
			"name":"Cylinder",
			"rotation":[
				-0.018319733440876007,
				-0.0026009446009993553,
				0.04290935769677162,
				0.9989076256752014
			],
			"scale":[
				0.9610649347305298,
				1.0044633150100708,
				0.9614741802215576
			]
		},
		{
			"children":[
				0
			],
			"mesh":1,
			"name":"Sphere"
		}
	],
	"materials":[
		{
			"doubleSided":true,
			"name":"Material.002",
			"pbrMetallicRoughness":{
				"baseColorFactor":[
					0.33972764015197754,
					0.7991030812263489,
					0.7911693453788757,
					1
				],
				"metallicFactor":0,
				"roughnessFactor":0.5
			}
		},
		{
			"doubleSided":true,
			"name":"Material.001",
			"pbrMetallicRoughness":{
				"baseColorTexture":{
					"index":0
				},
				"metallicFactor":0,
				"roughnessFactor":0.5
			}
		}
	],
	"meshes":[
		{
			"name":"Cylinder.001",
			"primitives":[
				{
					"attributes":{
						"POSITION":0,
						"NORMAL":1,
						"TEXCOORD_0":2
					},
					"indices":3,
					"material":0
				}
			]
		},
		{
			"name":"Sphere",
			"primitives":[
				{
					"attributes":{
						"POSITION":4,
						"NORMAL":5,
						"TEXCOORD_0":6
					},
					"indices":7,
					"material":1
				}
			]
		}
	],
	"textures":[
		{
			"sampler":0,
			"source":0
		}
	],
	"images":[
		{
			"bufferView":8,
			"mimeType":"image/png",
			"name":"Untitled"
		}
	],
	"accessors":[
		{
			"bufferView":0,
			"componentType":5126,
			"count":929,
			"max":[
				1.5695075988769531,
				0.10969189554452896,
				1.5695075988769531
			],
			"min":[
				-1.5695075988769531,
				-0.10969189554452896,
				-1.5695075988769531
			],
			"type":"VEC3"
		},
		{
			"bufferView":1,
			"componentType":5126,
			"count":929,
			"type":"VEC3"
		},
		{
			"bufferView":2,
			"componentType":5126,
			"count":929,
			"type":"VEC2"
		},
		{
			"bufferView":3,
			"componentType":5123,
			"count":3648,
			"type":"SCALAR"
		},
		{
			"bufferView":4,
			"componentType":5126,
			"count":654,
			"max":[
				0.9444910883903503,
				0.9906461238861084,
				0.9444910883903503
			],
			"min":[
				-0.944490909576416,
				-0.9906461238861084,
				-0.9444910883903503
			],
			"type":"VEC3"
		},
		{
			"bufferView":5,
			"componentType":5126,
			"count":654,
			"type":"VEC3"
		},
		{
			"bufferView":6,
			"componentType":5126,
			"count":654,
			"type":"VEC2"
		},
		{
			"bufferView":7,
			"componentType":5123,
			"count":3312,
			"type":"SCALAR"
		}
	],
	"bufferViews":[
		{
			"buffer":0,
			"byteLength":11148,
			"byteOffset":0,
			"target":34962
		},
		{
			"buffer":0,
			"byteLength":11148,
			"byteOffset":11148,
			"target":34962
		},
		{
			"buffer":0,
			"byteLength":7432,
			"byteOffset":22296,
			"target":34962
		},
		{
			"buffer":0,
			"byteLength":7296,
			"byteOffset":29728,
			"target":34963
		},
		{
			"buffer":0,
			"byteLength":7848,
			"byteOffset":37024,
			"target":34962
		},
		{
			"buffer":0,
			"byteLength":7848,
			"byteOffset":44872,
			"target":34962
		},
		{
			"buffer":0,
			"byteLength":5232,
			"byteOffset":52720,
			"target":34962
		},
		{
			"buffer":0,
			"byteLength":6624,
			"byteOffset":57952,
			"target":34963
		},
		{
			"buffer":0,
			"byteLength":250523,
			"byteOffset":64576
		}
	],
	"samplers":[
		{
			"magFilter":9729,
			"minFilter":9987
		}
	],
	"buffers":[
		{
			"byteLength":315100,
			"uri":"data:application/octet-stream;base64,"
		}
	]
}
