{
	"asset":{
		"generator":"Khronos glTF Blender I/O v3.6.27",
		"version":"2.0"
	},
	"scene":0,
	"scenes":[
		{
			"name":"Scene",
			"nodes":[
				3
			]
		}
	],
	"nodes":[
		{
			"mesh":0,
			"name":"Cylinder",
			"rotation":[
				0.017828291282057762,
				-0.005219044629484415,
				-0.015935203060507774,
				0.9997004270553589
			],
			"scale":[
				1.0424357652664185,
				0.23121517896652222,
				1.0428050756454468
			],
			"translation":[
				0,
				-0.043076299130916595,
				0
			]
		},
		{
			"mesh":1,
			"name":"Cylinder.001",
			"rotation":[
				0.017828291282057762,
				-0.005219044629484415,
				-0.015935203060507774,
				0.9997004270553589
			],
			"scale":[
				1.0424357652664185,
				0.23121517896652222,
				1.0428050756454468
			],
			"translation":[
				-0.0026870276778936386,
				-0.08662694692611694,
				-0.0030380163807421923
			]
		},
		{
			"mesh":2,
			"name":"Cylinder.002",
			"rotation":[
				0.017828291282057762,
				-0.005219044629484415,
				-0.015935203060507774,
				0.9997004270553589
			],
			"scale":[
				1.0424357652664185,
				0.23121517896652222,
				1.0428050756454468
			],
			"translation":[
				-0.0026870279107242823,
				-0.13618022203445435,
				-0.003038016613572836
			]
		},
		{
			"children":[
				0,
				1,
				2
			],
			"mesh":3,
			"name":"Sphere"
		}
	],
	"materials":[
		{
			"doubleSided":true,
			"name":"Material.002",
			"pbrMetallicRoughness":{
				"baseColorFactor":[
					0.7991030812263489,
					0.2580620348453522,
					0.6706547737121582,
					1
				],
				"metallicFactor":0,
				"roughnessFactor":0.5
			}
		},
		{
			"doubleSided":true,
			"name":"Material.003",
			"pbrMetallicRoughness":{
				"baseColorFactor":[
					0.7480802536010742,
					0.49408450722694397,
					0.7991030812263489,
					1
				],
				"metallicFactor":0,
				"roughnessFactor":0.5
			}
		},
		{
			"doubleSided":true,
			"name":"Material.001",
			"pbrMetallicRoughness":{
				"baseColorFactor":[
					0.35823988914489746,
					0.290230929851532,
					0.8000000715255737,
					1
				],
				"metallicFactor":0,
				"roughnessFactor":0.5
			}
		}
	],
	"meshes":[
		{
			"name":"Cylinder.001",
			"primitives":[
				{
					"attributes":{
						"POSITION":0,
						"NORMAL":1,
						"TEXCOORD_0":2
					},
					"indices":3,
					"material":0
				}
			]
		},
		{
			"name":"Cylinder.002",
			"primitives":[
				{
					"attributes":{
						"POSITION":4,
						"NORMAL":5,
						"TEXCOORD_0":6
					},
					"indices":3,
					"material":1
				}
			]
		},
		{
			"name":"Cylinder.003",
			"primitives":[
				{
					"attributes":{
						"POSITION":7,
						"NORMAL":8,
						"TEXCOORD_0":9
					},
					"indices":3,
					"material":0
				}
			]
		},
		{
			"name":"Sphere",
			"primitives":[
				{
					"attributes":{
						"POSITION":10,
						"NORMAL":11,
						"TEXCOORD_0":12
					},
					"indices":13,
					"material":2
				}
			]
		}
	],
	"accessors":[
		{
			"bufferView":0,
			"componentType":5126,
			"count":929,
			"max":[
				1.5695075988769531,
				0.10969189554452896,
				1.5695075988769531
			],
			"min":[
				-1.5695075988769531,
				-0.10969189554452896,
				-1.5695075988769531
			],
			"type":"VEC3"
		},
		{
			"bufferView":1,
			"componentType":5126,
			"count":929,
			"type":"VEC3"
		},
		{
			"bufferView":2,
			"componentType":5126,
			"count":929,
			"type":"VEC2"
		},
		{
			"bufferView":3,
			"componentType":5123,
			"count":3648,
			"type":"SCALAR"
		},
		{
			"bufferView":4,
			"componentType":5126,
			"count":929,
			"max":[
				1.5695075988769531,
				0.10969189554452896,
				1.5695075988769531
			],
			"min":[
				-1.5695075988769531,
				-0.10969189554452896,
				-1.5695075988769531
			],
			"type":"VEC3"
		},
		{
			"bufferView":5,
			"componentType":5126,
			"count":929,
			"type":"VEC3"
		},
		{
			"bufferView":6,
			"componentType":5126,
			"count":929,
			"type":"VEC2"
		},
		{
			"bufferView":7,
			"componentType":5126,
			"count":929,
			"max":[
				1.5695075988769531,
				0.10969189554452896,
				1.5695075988769531
			],
			"min":[
				-1.5695075988769531,
				-0.10969189554452896,
				-1.5695075988769531
			],
			"type":"VEC3"
		},
		{
			"bufferView":8,
			"componentType":5126,
			"count":929,
			"type":"VEC3"
		},
		{
			"bufferView":9,
			"componentType":5126,
			"count":929,
			"type":"VEC2"
		},
		{
			"bufferView":10,
			"componentType":5126,
			"count":654,
			"max":[
				0.9444910883903503,
				0.9906461238861084,
				0.9444910883903503
			],
			"min":[
				-0.944490909576416,
				-0.9906461238861084,
				-0.9444910883903503
			],
			"type":"VEC3"
		},
		{
			"bufferView":11,
			"componentType":5126,
			"count":654,
			"type":"VEC3"
		},
		{
			"bufferView":12,
			"componentType":5126,
			"count":654,
			"type":"VEC2"
		},
		{
			"bufferView":13,
			"componentType":5123,
			"count":3312,
			"type":"SCALAR"
		}
	],
	"bufferViews":[
		{
			"buffer":0,
			"byteLength":11148,
			"byteOffset":0,
			"target":34962
		},
		{
			"buffer":0,
			"byteLength":11148,
			"byteOffset":11148,
			"target":34962
		},
		{
			"buffer":0,
			"byteLength":7432,
			"byteOffset":22296,
			"target":34962
		},
		{
			"buffer":0,
			"byteLength":7296,
			"byteOffset":29728,
			"target":34963
		},
		{
			"buffer":0,
			"byteLength":11148,
			"byteOffset":37024,
			"target":34962
		},
		{
			"buffer":0,
			"byteLength":11148,
			"byteOffset":48172,
			"target":34962
		},
		{
			"buffer":0,
			"byteLength":7432,
			"byteOffset":59320,
			"target":34962
		},
		{
			"buffer":0,
			"byteLength":11148,
			"byteOffset":66752,
			"target":34962
		},
		{
			"buffer":0,
			"byteLength":11148,
			"byteOffset":77900,
			"target":34962
		},
		{
			"buffer":0,
			"byteLength":7432,
			"byteOffset":89048,
			"target":34962
		},
		{
			"buffer":0,
			"byteLength":7848,
			"byteOffset":96480,
			"target":34962
		},
		{
			"buffer":0,
			"byteLength":7848,
			"byteOffset":104328,
			"target":34962
		},
		{
			"buffer":0,
			"byteLength":5232,
			"byteOffset":112176,
			"target":34962
		},
		{
			"buffer":0,
			"byteLength":6624,
			"byteOffset":117408,
			"target":34963
		}
	],
	"buffers":[
		{
			"byteLength":124032,
			"uri":"data:application/octet-stream;base64,"
		}
	]
}
