{
	"asset":{
		"generator":"Khronos glTF Blender I/O v3.6.27",
		"version":"2.0"
	},
	"scene":0,
	"scenes":[
		{
			"name":"Scene",
			"nodes":[
				1
			]
		}
	],
	"nodes":[
		{
			"mesh":0,
			"name":"Cylinder"
		},
		{
			"children":[
				0
			],
			"mesh":1,
			"name":"Sphere"
		}
	],
	"materials":[
		{
			"doubleSided":true,
			"name":"Material.002",
			"pbrMetallicRoughness":{
				"baseColorFactor":[
					0.20415517687797546,
					0.7991030812263489,
					0.37733471393585205,
					1
				],
				"metallicFactor":0,
				"roughnessFactor":0.5
			}
		},
		{
			"doubleSided":true,
			"name":"Material.001",
			"pbrMetallicRoughness":{
				"baseColorFactor":[
					0.7424517273902893,
					0.5531908273696899,
					0.8000000715255737,
					1
				],
				"metallicFactor":0,
				"roughnessFactor":0.5
			}
		}
	],
	"meshes":[
		{
			"name":"Cylinder.001",
			"primitives":[
				{
					"attributes":{
						"POSITION":0,
						"NORMAL":1,
						"TEXCOORD_0":2
					},
					"indices":3,
					"material":0
				}
			]
		},
		{
			"name":"Sphere",
			"primitives":[
				{
					"attributes":{
						"POSITION":4,
						"NORMAL":5,
						"TEXCOORD_0":6
					},
					"indices":7,
					"material":1
				}
			]
		}
	],
	"accessors":[
		{
			"bufferView":0,
			"componentType":5126,
			"count":929,
			"max":[
				1.6401894092559814,
				0.1710289567708969,
				1.6409978866577148
			],
			"min":[
				-1.6468896865844727,
				-0.3204936385154724,
				-1.6475944519042969
			],
			"type":"VEC3"
		},
		{
			"bufferView":1,
			"componentType":5126,
			"count":929,
			"type":"VEC3"
		},
		{
			"bufferView":2,
			"componentType":5126,
			"count":929,
			"type":"VEC2"
		},
		{
			"bufferView":3,
			"componentType":5123,
			"count":3648,
			"type":"SCALAR"
		},
		{
			"bufferView":4,
			"componentType":5126,
			"count":654,
			"max":[
				0.9444910883903503,
				0.9906461238861084,
				0.9444910883903503
			],
			"min":[
				-0.944490909576416,
				-0.9906461238861084,
				-0.9444910883903503
			],
			"type":"VEC3"
		},
		{
			"bufferView":5,
			"componentType":5126,
			"count":654,
			"type":"VEC3"
		},
		{
			"bufferView":6,
			"componentType":5126,
			"count":654,
			"type":"VEC2"
		},
		{
			"bufferView":7,
			"componentType":5123,
			"count":3312,
			"type":"SCALAR"
		}
	],
	"bufferViews":[
		{
			"buffer":0,
			"byteLength":11148,
			"byteOffset":0,
			"target":34962
		},
		{
			"buffer":0,
			"byteLength":11148,
			"byteOffset":11148,
			"target":34962
		},
		{
			"buffer":0,
			"byteLength":7432,
			"byteOffset":22296,
			"target":34962
		},
		{
			"buffer":0,
			"byteLength":7296,
			"byteOffset":29728,
			"target":34963
		},
		{
			"buffer":0,
			"byteLength":7848,
			"byteOffset":37024,
			"target":34962
		},
		{
			"buffer":0,
			"byteLength":7848,
			"byteOffset":44872,
			"target":34962
		},
		{
			"buffer":0,
			"byteLength":5232,
			"byteOffset":52720,
			"target":34962
		},
		{
			"buffer":0,
			"byteLength":6624,
			"byteOffset":57952,
			"target":34963
		}
	],
	"buffers":[
		{
			"byteLength":64576,
			"uri":"data:application/octet-stream;base64,"
		}
	]
}
