{
	"asset":{
		"generator":"Khronos glTF Blender I/O v3.6.27",
		"version":"2.0"
	},
	"extensionsUsed":[
		"KHR_materials_transmission",
		"KHR_materials_ior"
	],
	"scene":0,
	"scenes":[
		{
			"name":"Scene",
			"nodes":[
				0
			]
		}
	],
	"nodes":[
		{
			"mesh":0,
			"name":"Tablet",
			"scale":[
				1.033899188041687,
				1.062903881072998,
				1
			]
		}
	],
	"materials":[
		{
			"doubleSided":true,
			"name":"base-mat",
			"pbrMetallicRoughness":{
				"baseColorFactor":[
					0.07764635980129242,
					0.011416318826377392,
					0.06735514104366302,
					1
				],
				"metallicFactor":0.6472602486610413,
				"roughnessFactor":0.5958904027938843
			}
		},
		{
			"doubleSided":true,
			"extensions":{
				"KHR_materials_transmission":{
					"transmissionFactor":1
				},
				"KHR_materials_ior":{
					"ior":1.4500000476837158
				}
			},
			"name":"screen",
			"pbrMetallicRoughness":{
				"baseColorFactor":[
					0.20352795720100403,
					0.20352795720100403,
					0.20352795720100403,
					1
				],
				"metallicFactor":0,
				"roughnessFactor":0.017123281955718994
			}
		},
		{
			"doubleSided":true,
			"emissiveFactor":[
				1,
				1,
				1
			],
			"name":"light",
			"pbrMetallicRoughness":{
				"baseColorFactor":[
					0.800000011920929,
					0.800000011920929,
					0.800000011920929,
					1
				],
				"metallicFactor":0,
				"roughnessFactor":0.5
			}
		}
	],
	"meshes":[
		{
			"name":"Cube",
			"primitives":[
				{
					"attributes":{
						"POSITION":0,
						"NORMAL":1,
						"TEXCOORD_0":2
					},
					"indices":3,
					"material":0
				},
				{
					"attributes":{
						"POSITION":4,
						"NORMAL":5,
						"TEXCOORD_0":6
					},
					"indices":7,
					"material":1
				},
				{
					"attributes":{
						"POSITION":8,
						"NORMAL":9,
						"TEXCOORD_0":10
					},
					"indices":11,
					"material":2
				}
			]
		}
	],
	"accessors":[
		{
			"bufferView":0,
			"componentType":5126,
			"count":1819,
			"max":[
				1.9675322771072388,
				1.2025929689407349,
				0.20452530682086945
			],
			"min":[
				-1.9675322771072388,
				-1.1961170434951782,
				-0.20452529191970825
			],
			"type":"VEC3"
		},
		{
			"bufferView":1,
			"componentType":5126,
			"count":1819,
			"type":"VEC3"
		},
		{
			"bufferView":2,
			"componentType":5126,
			"count":1819,
			"type":"VEC2"
		},
		{
			"bufferView":3,
			"componentType":5123,
			"count":4638,
			"type":"SCALAR"
		},
		{
			"bufferView":4,
			"componentType":5126,
			"count":32,
			"max":[
				1.7525348663330078,
				0.9526329040527344,
				0.08850489556789398
			],
			"min":[
				-1.7525348663330078,
				-0.9477558135986328,
				0.0885048657655716
			],
			"type":"VEC3"
		},
		{
			"bufferView":5,
			"componentType":5126,
			"count":32,
			"type":"VEC3"
		},
		{
			"bufferView":6,
			"componentType":5126,
			"count":32,
			"type":"VEC2"
		},
		{
			"bufferView":7,
			"componentType":5123,
			"count":90,
			"type":"SCALAR"
		},
		{
			"bufferView":8,
			"componentType":5126,
			"count":72,
			"max":[
				1.9001986980438232,
				1.1312556266784668,
				0.20452529191970825
			],
			"min":[
				-1.9001986980438232,
				-1.1247797012329102,
				0.20452529191970825
			],
			"type":"VEC3"
		},
		{
			"bufferView":9,
			"componentType":5126,
			"count":72,
			"type":"VEC3"
		},
		{
			"bufferView":10,
			"componentType":5126,
			"count":72,
			"type":"VEC2"
		},
		{
			"bufferView":11,
			"componentType":5123,
			"count":204,
			"type":"SCALAR"
		}
	],
	"bufferViews":[
		{
			"buffer":0,
			"byteLength":21828,
			"byteOffset":0,
			"target":34962
		},
		{
			"buffer":0,
			"byteLength":21828,
			"byteOffset":21828,
			"target":34962
		},
		{
			"buffer":0,
			"byteLength":14552,
			"byteOffset":43656,
			"target":34962
		},
		{
			"buffer":0,
			"byteLength":9276,
			"byteOffset":58208,
			"target":34963
		},
		{
			"buffer":0,
			"byteLength":384,
			"byteOffset":67484,
			"target":34962
		},
		{
			"buffer":0,
			"byteLength":384,
			"byteOffset":67868,
			"target":34962
		},
		{
			"buffer":0,
			"byteLength":256,
			"byteOffset":68252,
			"target":34962
		},
		{
			"buffer":0,
			"byteLength":180,
			"byteOffset":68508,
			"target":34963
		},
		{
			"buffer":0,
			"byteLength":864,
			"byteOffset":68688,
			"target":34962
		},
		{
			"buffer":0,
			"byteLength":864,
			"byteOffset":69552,
			"target":34962
		},
		{
			"buffer":0,
			"byteLength":576,
			"byteOffset":70416,
			"target":34962
		},
		{
			"buffer":0,
			"byteLength":408,
			"byteOffset":70992,
			"target":34963
		}
	],
	"buffers":[
		{
			"byteLength":71400,
			"uri":"data:application/octet-stream;base64,"
		}
	]
}
